<svg width="16" height="16" viewBox="0 0 16 16" fill="none" xmlns="http://www.w3.org/2000/svg">
<path d="M3.53369 3.19143H13.1401C13.2817 3.19143 13.4174 3.1352 13.5175 3.03511C13.6176 2.93503 13.6738 2.79928 13.6738 2.65774C13.6738 2.51619 13.6176 2.38045 13.5175 2.28036C13.4174 2.18028 13.2817 2.12405 13.1401 2.12405H11.3469C11.1312 1.5208 10.7395 0.996126 10.2225 0.61784C9.70548 0.239553 9.08686 0.0250515 8.44662 0.00206293C7.80639 -0.0209257 7.17398 0.148656 6.63115 0.488886C6.08831 0.829116 5.66001 1.32435 5.40161 1.91057C5.36959 1.97995 5.34824 2.05467 5.32155 2.12405H3.53369C3.39215 2.12405 3.2564 2.18028 3.15631 2.28036C3.05623 2.38045 3 2.51619 3 2.65774C3 2.79928 3.05623 2.93503 3.15631 3.03511C3.2564 3.1352 3.39215 3.19143 3.53369 3.19143ZM8.33691 1.05667C8.71126 1.05705 9.07894 1.15587 9.40305 1.34322C9.72715 1.53056 9.99629 1.79984 10.1835 2.12405H6.49034C6.67752 1.79984 6.94666 1.53056 7.27076 1.34322C7.59487 1.15587 7.96255 1.05705 8.33691 1.05667ZM13.1401 4.25881H3.53369C3.39215 4.25881 3.2564 4.31504 3.15631 4.41512C3.05623 4.51521 3 4.65096 3 4.7925C3 4.93404 3.05623 5.06979 3.15631 5.16988C3.2564 5.26996 3.39215 5.32619 3.53369 5.32619V15.4663C3.53369 15.6079 3.58992 15.7436 3.69 15.8437C3.79009 15.9438 3.92584 16 4.06738 16H12.6064C12.748 16 12.8837 15.9438 12.9838 15.8437C13.0839 15.7436 13.1401 15.6079 13.1401 15.4663V5.32619C13.2817 5.32619 13.4174 5.26996 13.5175 5.16988C13.6176 5.06979 13.6738 4.93404 13.6738 4.7925C13.6738 4.65096 13.6176 4.51521 13.5175 4.41512C13.4174 4.31504 13.2817 4.25881 13.1401 4.25881ZM12.0727 14.9326H4.60107V5.32619H12.0727V14.9326ZM5.66845 13.3315V6.92726C5.66845 6.78572 5.72468 6.64997 5.82477 6.54989C5.92485 6.4498 6.0606 6.39357 6.20214 6.39357C6.34369 6.39357 6.47943 6.4498 6.57952 6.54989C6.67961 6.64997 6.73583 6.78572 6.73583 6.92726V13.3315C6.73583 13.4731 6.67961 13.6088 6.57952 13.7089C6.47943 13.809 6.34369 13.8652 6.20214 13.8652C6.0606 13.8652 5.92485 13.809 5.82477 13.7089C5.72468 13.6088 5.66845 13.4731 5.66845 13.3315ZM7.80321 13.3315V6.92726C7.80321 6.78572 7.85944 6.64997 7.95953 6.54989C8.05962 6.4498 8.19536 6.39357 8.33691 6.39357C8.47845 6.39357 8.6142 6.4498 8.71428 6.54989C8.81437 6.64997 8.8706 6.78572 8.8706 6.92726V13.3315C8.8706 13.4731 8.81437 13.6088 8.71428 13.7089C8.6142 13.809 8.47845 13.8652 8.33691 13.8652C8.19536 13.8652 8.05962 13.809 7.95953 13.7089C7.85944 13.6088 7.80321 13.4731 7.80321 13.3315ZM9.93798 13.3315V6.92726C9.93798 6.78572 9.9942 6.64997 10.0943 6.54989C10.1944 6.4498 10.3301 6.39357 10.4717 6.39357C10.6132 6.39357 10.749 6.4498 10.849 6.54989C10.9491 6.64997 11.0054 6.78572 11.0054 6.92726V13.3315C11.0054 13.4731 10.9491 13.6088 10.849 13.7089C10.749 13.809 10.6132 13.8652 10.4717 13.8652C10.3301 13.8652 10.1944 13.809 10.0943 13.7089C9.9942 13.6088 9.93798 13.4731 9.93798 13.3315Z" fill="#D33927"/>
</svg>
